PathFileType	4	(X/Y/Z)	C:/Users/beibeiliu/ov580/test_trc/User3\sequence.39_training_dense_right.trc
DataRate	CameraRate	NumFrames	NumMarkers	Units	OrigDataRate	OrigDataStartFrame	OrigNumFrames
120	120	20	19	mm	120	59	235
Frame#	Time	ThumbCMC			ThumbMCP			ThumbIP			ThumbTip			IndexMCP			IndexPIP			IndexTip			MiddleMCP			MiddlePIP			MiddleTip			RingMCP			RingPIP			RingTip			PinkyMCP			PinkyPIP			PinkyTip			BackHand1			BackHand2			BackHand3	
		X0	Y0	Z0	X1	Y1	Z1	X2	Y2	Z2	X3	Y3	Z3	X4	Y4	Z4	X5	Y5	Z5	X6	Y6	Z6	X7	Y7	Z7	X8	Y8	Z8	X9	Y9	Z9	X10	Y10	Z10	X11	Y11	Z11	X12	Y12	Z12	X13	Y13	Z13	X14	Y14	Z14	X15	Y15	Z15	X16	Y16	Z16	X17	Y17	Z17	X18	Y18	Z18	
58	0.483333	136.463	-28.4895	38.2792	128.131	-12.046	10.0734	119.234	-10.6872	-22.7498	112.898	-10.9739	-42.5737	124.7	-24.6252	-33.7777	98.8957	-14.7017	-24.1966	107.574	-23.7937	6.8696	118.027	-41.5696	-40.0994	90.4026	-33.0972	-25.8723	106.686	-40.8272	10.5634	113.243	-62.9677	-36.1309	85.4903	-47.6061	-29.1025	89.8713	-42.5302	3.71833	115.649	-79.3566	-31.2286	90.0766	-65.9087	-36.9685	82.6799	-64.71	-8.69336	147.809	-81.4784	5.47402	147.609	-90.6756	37.6776	158.668	-51.846	28.2772	
59	0.491667	134.377	-28.5802	39.384	124.801	-11.2965	9.61346	117.728	-10.7566	-20.6811	110.569	-0.773091	-37.4802	129.849	-21.7607	-30.2589	95.8739	-21.146	-17.2223	107.478	-30.4046	8.64218	119.193	-44.1277	-40.421	91.2563	-37.2738	-28.2038	107.333	-45.0824	8.59449	119.641	-64.86	-36.6837	89.1598	-56.3502	-32.9675	87.4138	-45.2697	-2.00526	122.476	-82.2795	-30.6427	97.5498	-70.988	-40.7408	81.6556	-64.2915	-19.1795	154.243	-82.634	8.42531	153.015	-85.751	36.7188	162.095	-52.6495	26.9388	
60	0.5	135.04	-25.0758	35.9006	123.53	-12.3707	11.0192	115.527	-1.24082	-12.9659	109.742	8.09151	-29.3621	126.1	-23.816	-34.9993	94.3619	-23.3517	-31.715	94.5015	-27.9075	-0.456638	116.607	-46.6466	-38.038	85.6118	-40.6469	-26.4776	94.8087	-45.9558	10.8538	113.696	-68.1163	-36.1377	86.0607	-56.7943	-28.1089	96.3311	-54.6168	6.41562	120.083	-80.6536	-28.1472	95.4289	-70.7907	-34.3573	83.9014	-70.4444	-8.45228	152.012	-79.9185	8.24699	154.497	-83.9591	37.2596	160.547	-48.4819	27.4947	
61	0.508333	132.258	-20.7396	34.4863	119.924	-6.75891	8.15833	114.274	1.35734	-16.9414	108.028	18.167	-33.1808	120.375	-31.1206	-36.9603	86.4261	-25.208	-30.0753	95.7284	-25.8732	0.55397	115.726	-48.9	-38.9102	83.4377	-46.5152	-30.4033	91.0642	-47.7652	8.66888	109.208	-71.5029	-31.9832	82.9774	-62.4763	-19.2097	93.3103	-53.8527	8.94975	122.614	-85.57	-29.1351	96.2582	-82.502	-35.0669	87.9604	-74.6638	-4.24029	156.015	-74.6549	8.31747	157.948	-73.4678	37.1074	158.428	-38.9386	24.6792	
62	0.516667	131.64	-21.8715	43.0289	118.308	-7.80315	15.5773	108.098	0.116218	-7.73055	98.5413	9.90386	-25.5297	126.415	-28.3485	-33.5249	93.9354	-26.0866	-46.9607	71.791	-29.7592	-24.3079	115.326	-45.2485	-39.3587	83.2483	-47.6357	-33.8993	83.1979	-51.2563	8.08051	113.969	-67.8438	-32.6311	85.1001	-66.7494	-24.1742	88.6564	-56.2574	5.32226	125.715	-82.1582	-24.1722	101.509	-76.3964	-34.4054	83.6672	-73.8352	-10.49	155.366	-69.4125	10.3281	163.887	-73.0768	41.4061	158.162	-42.2681	28.7372	
63	0.525	129.023	-15.4132	36.8074	120.793	-0.679953	9.13089	111.224	6.50948	-19.783	100.874	-1.7819	-38.6496	115.908	-28.6657	-43.8635	85.1815	-32.7364	-45.9449	76.3783	-33.0213	-14.4397	111.205	-49.7715	-43.744	79.0735	-52.885	-37.3392	81.6384	-53.7498	2.11981	111.989	-68.1441	-34.4324	81.5889	-70.3192	-21.8129	92.9591	-61.6929	8.18069	119.644	-85.8495	-26.7175	93.837	-81.6914	-28.1166	88.5499	-80.3072	1.56811	156.37	-68.7466	8.32734	159.026	-66.1211	36.4431	153.221	-38.1482	21.6146	
64	0.533333	130.694	-14.3179	37.7588	120.316	-2.3696	6.2842	111.601	4.2202	-20.9773	98.8846	-13.7503	-40.3036	123.458	-32.8718	-39.6796	87.6346	-28.9835	-48.6718	72.2243	-30.1775	-24.446	113.926	-52.0741	-38.646	79.2589	-49.0578	-31.6631	85.0109	-53.1186	7.44477	111.23	-73.4523	-31.0961	81.6494	-68.1554	-23.9092	91.2128	-58.218	8.33261	122.52	-86.1126	-21.5052	96.2265	-86.4601	-34.4223	78.7538	-76.357	-9.33289	153.241	-73.8208	11.5453	156.401	-74.9126	40.4256	154.864	-41.5877	21.596	
65	0.541667	130.885	-11.983	34.1958	121.764	1.9535	6.83463	109.438	3.89265	-20.11	98.7806	-19.6367	-34.7016	116.375	-33.1848	-43.3826	84.8065	-32.9264	-46.1309	81.018	-29.859	-14.1502	109.797	-48.9033	-40.3336	76.5452	-50.0557	-31.1285	89.176	-49.3236	8.26357	110.414	-70.2454	-32.6782	79.341	-66.906	-23.1565	88.8516	-57.169	5.28526	119.109	-87.7617	-24.1698	93.5039	-81.2835	-33.7971	74.3682	-77.508	-6.08211	152.836	-67.6756	9.33767	157.019	-68.7854	40.9729	154.505	-39.009	22.8851	
66	0.55	125.854	-18.4484	41.0334	120.065	0.324059	15.096	111.757	-0.102847	-15.6274	104.498	-9.88355	-40.4253	125.233	-24.533	-41.2548	96.5389	-25.1772	-53.9915	73.3509	-30.0343	-32.659	118.426	-48.5617	-39.7336	83.1277	-46.0703	-40.0872	74.4356	-50.8991	-2.95119	110.76	-69.1277	-34.9192	82.4328	-66.4887	-28.4317	78.5669	-60.6278	2.72799	116.603	-81.6264	-27.6765	89.0683	-80.3194	-24.9604	91.4489	-78.1509	9.27822	154.607	-69.9669	10.3926	154.273	-72.7556	38.478	150.703	-36.9014	29.4365	
67	0.558333	127.462	-19.6583	35.2397	112.929	-6.26299	4.65243	101.636	-13.4489	-21.9101	91.6472	-20.2761	-38.0698	118.353	-24.0405	-43.7892	89.9821	-23.2816	-48.7491	85.9112	-24.7779	-12.0462	111.805	-41.3569	-42.7384	78.2438	-41.5951	-37.5681	87.4305	-46.356	-0.248659	104.04	-64.8827	-36.3219	76.1849	-57.4721	-26.1783	84.6746	-53.4817	6.82458	102.856	-85.5601	-29.7951	79.8242	-77.3441	-27.0027	74.9563	-60.5283	-1.67686	149.687	-69.86	4.31706	153.437	-74.9851	32.4207	153.104	-44.0912	22.2524	
68	0.566667	125.686	-22.0564	35.1822	114.124	-6.72861	6.83683	104.464	-10.9819	-17.5036	94.6129	-25.8288	-42.3221	121.397	-29.5601	-39.7732	87.6441	-20.5158	-43.4944	84.8723	-23.6871	-12.7768	109.52	-41.8859	-41.07	79.6249	-41.541	-32.284	92.2715	-47.7596	6.81391	106.295	-63.0287	-34.053	79.5446	-61.6263	-23.4532	92.5435	-55.3731	10.115	109.894	-80.0054	-28.2641	83.1164	-76.0408	-24.3983	85.9787	-71.9178	5.46039	147.849	-74.9083	8.51902	150.906	-76.6793	38.4368	151.54	-41.3564	23.0453	
69	0.575	128.716	-21.0561	36.7242	115.411	-6.98793	11.9293	105.12	-13.8022	-16.6677	93.8055	-18.7521	-34.3431	121.57	-20.2535	-38.7669	91.4074	-14.3994	-41.8578	90.5919	-20.911	-5.174	112.106	-42.1921	-39.87	80.3227	-36.3664	-30.6519	92.4647	-44.5289	7.0047	107.231	-63.0854	-36.8624	79.2476	-56.3289	-28.6291	89.1579	-50.3987	5.11202	108.113	-86.4409	-27.1745	81.4115	-75.2396	-27.6629	84.3803	-58.8971	2.41621	151.201	-74.8962	6.10409	154.714	-80.9297	34.241	153.246	-45.7534	22.8417	
70	0.583333	126.175	-24.6847	44.4793	116.534	-8.30849	11.177	107.686	-7.21926	-16.0882	101.874	-10.9005	-36.2279	122.688	-16.9274	-32.6551	92.8861	-16.8971	-29.3453	94.6285	-19.9574	3.86039	116.746	-36.7475	-38.958	85.657	-34.2148	-30.5017	90.916	-44.9547	6.82053	114.046	-60.9071	-33.3272	83.8468	-50.2071	-26.1245	87.3863	-50.2193	8.97577	116.062	-76.9449	-31.6853	92.7658	-70.2249	-33.4491	87.2449	-62.3735	-3.21953	152.785	-70.9246	11.5324	151.049	-80.066	43.4272	154.948	-45.6501	30.5895	
71	0.591667	135.289	-21.9994	39.5676	124.173	-7.48001	15.3908	114.358	-6.07784	-14.3917	106.092	4.86693	-34.4945	122.756	-21.7241	-33.1542	91.8824	-10.7778	-26.3449	98.8566	-18.617	5.52152	115.398	-35.8228	-39.4158	84.9056	-25.4154	-27.5318	96.5647	-41.6308	7.84785	106.844	-57.0157	-37.0302	80.6068	-44.4297	-25.8574	86.332	-42.4156	2.4627	110.264	-76.5983	-27.1107	87.2349	-63.0811	-33.578	81.0918	-60.5857	-2.28409	145.345	-79.133	4.70959	149.389	-85.3848	37.4079	155.025	-51.3343	25.5744	
72	0.6	133.676	-21.0863	40.046	126.281	-3.86897	16.8277	120.899	4.62877	-16.3165	114.643	12.6901	-31.5104	124.971	-21.5497	-35.1095	94.2502	-10.8831	-32.0609	95.3697	-19.4327	-0.69184	117.843	-33.0256	-39.4158	87.5784	-30.9576	-32.9946	94.1904	-39.1436	7.67168	114.641	-58.1568	-35.5429	84.4113	-49.1506	-28.5058	92.2559	-47.0014	3.25457	117.385	-78.0237	-28.6106	89.5112	-66.0131	-35.3864	83.2212	-60.4273	-10.3134	148.49	-71.8789	10.3984	151.092	-77.6937	36.9989	156.001	-45.7714	30.8869	
73	0.608333	127.256	-9.12398	36.8683	117.984	4.74828	12.323	111.921	9.64973	-18.9355	105.466	22.5844	-37.7601	123.076	-18.8767	-35.8854	88.7367	-19.4296	-35.4903	94.6952	-24.2688	-2.26295	115.135	-43.0931	-41.6269	85.5585	-39.0476	-31.3762	99.4878	-38.3693	6.34616	114.013	-61.7557	-35.4866	87.4318	-55.5255	-29.0894	88.901	-50.9703	5.01956	127.941	-74.3165	-30.7922	101.331	-71.3106	-37.3336	88.4187	-64.3634	-9.87952	155.54	-59.2751	8.4435	157.673	-67.4103	40.7217	155.072	-28.7468	28.326	
74	0.616667	125.034	-11.3143	39.9538	118.508	9.12085	13.4995	113.273	14.6915	-20.6019	106.799	19.4349	-37.7435	121.744	-14.6549	-36.4351	89.7204	-18.7497	-37.3242	88.4065	-23.2085	-2.5161	115.78	-35.1029	-39.9353	85.4532	-39.3535	-29.0713	94.6856	-41.6985	10.0419	118.96	-55.7129	-35.8857	87.7534	-53.3402	-23.948	96.7911	-46.9943	5.05755	124.875	-71.3158	-31.9427	96.2275	-67.968	-32.669	93.2643	-65.6877	-2.89928	156.993	-59.1768	11.1914	157.528	-65.0717	37.4979	153.897	-28.7474	24.42	
75	0.625	128.667	-6.97728	38.2243	118.489	10.4446	10.09	111.514	16.9113	-17.9587	104.159	19.9793	-36.5894	118.344	-13.7394	-37.2536	87.8853	-10.9832	-32.8118	94.1764	-18.1231	0.561325	115.673	-32.3285	-40.2353	85.0528	-34.0283	-30.5816	95.306	-35.5631	6.27815	118.175	-54.0761	-34.3542	87.2948	-51.6006	-29.0359	93.7207	-43.3715	4.13417	128.838	-69.1974	-25.7757	103.089	-67.1075	-38.7974	86.3979	-66.1029	-14.4281	154.404	-58.1425	9.10882	157.793	-58.0704	42.556	156.521	-23.8774	28.1334	
76	0.633333	122.243	-3.04226	42.7938	113.57	12.0493	15.5277	109.035	23.242	-14.926	101.727	10.1541	-36.0628	119.337	-8.75802	-34.5085	88.0613	-12.1235	-31.9752	83.1659	-20.476	-0.34323	121.199	-32.14	-36.6716	88.5855	-29.7703	-31.3104	87.2987	-28.2456	10.5562	121.627	-47.665	-34.9779	93.4666	-50.1609	-29.1435	96.0267	-38.7752	3.59315	133.172	-63.0965	-25.9007	108.134	-63.9558	-37.2613	91.6511	-60.492	-12.7805	157.01	-49.3998	16.3724	157.589	-52.1123	43.0015	155.129	-19.9545	30.3717	
77	0.641667	121.372	-0.339915	42.6319	117.096	17.0144	17.1602	110.982	27.1144	-11.0951	104.702	35.7166	-28.5115	120.099	-2.92533	-31.9599	84.9908	-10.5889	-32.9669	89.1175	-18.6951	-3.23233	119.732	-28.7245	-36.5427	87.7577	-31.8507	-30.5746	100.673	-30.5555	9.94915	123.149	-43.4331	-34.4814	93.9032	-49.0904	-30.5495	95.0064	-44.2643	3.08872	135.99	-59.6595	-25.1946	113.082	-59.9912	-42.3329	90.2671	-63.3072	-26.5455	157.971	-40.9524	13.9494	156.269	-48.7154	44.9294	148.873	-10.9309	30.866	
